<?xml version="1.0" encoding="utf-8"?>
<!-- Generator: Adobe Illustrator 25.2.0, SVG Export Plug-In . SVG Version: 6.00 Build 0)  -->
<svg version="1.1" xmlns="http://www.w3.org/2000/svg" xmlns:xlink="http://www.w3.org/1999/xlink" x="0px" y="0px"
	 viewBox="0 0 1024 768" style="enable-background:new 0 0 1024 768;" xml:space="preserve">
<style type="text/css">
	.st0{display:none;}
	.st1{fill:#FFFFFF;}
	.st2{filter:url(#Adobe_OpacityMaskFilter);}
	.st3{mask:url(#SVGID_1_);}
	.st4{fill:#095B29;}
	.st5{filter:url(#Adobe_OpacityMaskFilter_1_);}
	.st6{mask:url(#SVGID_2_);}
	.st7{filter:url(#Adobe_OpacityMaskFilter_2_);}
	.st8{mask:url(#SVGID_3_);}
	.st9{filter:url(#Adobe_OpacityMaskFilter_3_);}
	.st10{mask:url(#SVGID_4_);}
	.st11{filter:url(#Adobe_OpacityMaskFilter_4_);}
	.st12{mask:url(#SVGID_5_);}
	.st13{fill:#093D29;}
	.st14{filter:url(#Adobe_OpacityMaskFilter_5_);}
	.st15{mask:url(#SVGID_6_);}
	.st16{filter:url(#Adobe_OpacityMaskFilter_6_);}
	.st17{mask:url(#SVGID_7_);}
	.st18{filter:url(#Adobe_OpacityMaskFilter_7_);}
	.st19{mask:url(#SVGID_8_);}
	.st20{filter:url(#Adobe_OpacityMaskFilter_8_);}
	.st21{mask:url(#SVGID_9_);}
	.st22{filter:url(#Adobe_OpacityMaskFilter_9_);}
	.st23{mask:url(#SVGID_10_);}
	.st24{filter:url(#Adobe_OpacityMaskFilter_10_);}
	.st25{mask:url(#SVGID_11_);}
	.st26{filter:url(#Adobe_OpacityMaskFilter_11_);}
	.st27{mask:url(#SVGID_12_);}
	.st28{filter:url(#Adobe_OpacityMaskFilter_12_);}
	.st29{mask:url(#SVGID_13_);}
	.st30{filter:url(#Adobe_OpacityMaskFilter_13_);}
	.st31{mask:url(#SVGID_14_);}
	.st32{filter:url(#Adobe_OpacityMaskFilter_14_);}
	.st33{mask:url(#SVGID_15_);}
	.st34{filter:url(#Adobe_OpacityMaskFilter_15_);}
	.st35{mask:url(#SVGID_16_);}
	.st36{filter:url(#Adobe_OpacityMaskFilter_16_);}
	.st37{mask:url(#SVGID_17_);}
	.st38{filter:url(#Adobe_OpacityMaskFilter_17_);}
	.st39{mask:url(#SVGID_18_);}
	.st40{filter:url(#Adobe_OpacityMaskFilter_18_);}
	.st41{mask:url(#SVGID_19_);}
	.st42{filter:url(#Adobe_OpacityMaskFilter_19_);}
	.st43{mask:url(#SVGID_20_);}
	.st44{filter:url(#Adobe_OpacityMaskFilter_20_);}
	.st45{mask:url(#SVGID_21_);}
	.st46{filter:url(#Adobe_OpacityMaskFilter_21_);}
	.st47{mask:url(#SVGID_22_);}
	.st48{filter:url(#Adobe_OpacityMaskFilter_22_);}
	.st49{mask:url(#SVGID_23_);}
	.st50{filter:url(#Adobe_OpacityMaskFilter_23_);}
	.st51{mask:url(#SVGID_24_);}
	.st52{filter:url(#Adobe_OpacityMaskFilter_24_);}
	.st53{mask:url(#SVGID_25_);}
	.st54{filter:url(#Adobe_OpacityMaskFilter_25_);}
	.st55{mask:url(#SVGID_26_);}
	.st56{filter:url(#Adobe_OpacityMaskFilter_26_);}
	.st57{mask:url(#SVGID_27_);}
	.st58{filter:url(#Adobe_OpacityMaskFilter_27_);}
	.st59{mask:url(#SVGID_28_);}
	.st60{filter:url(#Adobe_OpacityMaskFilter_28_);}
	.st61{mask:url(#SVGID_29_);}
	.st62{filter:url(#Adobe_OpacityMaskFilter_29_);}
	.st63{mask:url(#SVGID_30_);}
	.st64{filter:url(#Adobe_OpacityMaskFilter_30_);}
	.st65{mask:url(#SVGID_31_);}
	.st66{filter:url(#Adobe_OpacityMaskFilter_31_);}
	.st67{mask:url(#SVGID_32_);}
	.st68{filter:url(#Adobe_OpacityMaskFilter_32_);}
	.st69{mask:url(#SVGID_33_);}
	.st70{filter:url(#Adobe_OpacityMaskFilter_33_);}
	.st71{mask:url(#SVGID_34_);}
	.st72{filter:url(#Adobe_OpacityMaskFilter_34_);}
	.st73{mask:url(#SVGID_35_);}
	.st74{filter:url(#Adobe_OpacityMaskFilter_35_);}
	.st75{mask:url(#SVGID_36_);}
	.st76{filter:url(#Adobe_OpacityMaskFilter_36_);}
	.st77{mask:url(#SVGID_37_);}
	.st78{filter:url(#Adobe_OpacityMaskFilter_37_);}
	.st79{mask:url(#SVGID_38_);}
	.st80{filter:url(#Adobe_OpacityMaskFilter_38_);}
	.st81{mask:url(#SVGID_39_);}
	.st82{filter:url(#Adobe_OpacityMaskFilter_39_);}
	.st83{mask:url(#SVGID_40_);}
	.st84{filter:url(#Adobe_OpacityMaskFilter_40_);}
	.st85{mask:url(#SVGID_41_);}
	.st86{fill:#FEFFF9;}
	.st87{font-family:'MyriadPro-Regular';}
	.st88{font-size:62.6928px;}
	.st89{fill:#04321E;}
	.st90{font-size:27.3335px;}
</style>
<g id="Layer_1" class="st0">
	
		<image style="display:inline;overflow:visible;" width="626" height="626" xlink:href="C:\Users\colin\OneDrive\Desktop\lawnmower.jpg"  transform="matrix(0.75 0 0 0.75 210 158)">
	</image>
</g>
<g id="lawnmower_body">
</g>
<g id="Layer_3">
</g>
<g id="Layer_5">
</g>
<g id="Layer_6">
</g>
<g id="wheels">
</g>
<g id="Layer_8">
	<ellipse class="st1" cx="528" cy="490.8" rx="198" ry="182.9"/>
</g>
<g id="Layer_7">
	<g>
		<g>
			<defs>
				<filter id="Adobe_OpacityMaskFilter" filterUnits="userSpaceOnUse" x="438.5" y="450.5" width="200.1" height="93.1">
					<feFlood  style="flood-color:white;flood-opacity:1" result="back"/>
					<feBlend  in="SourceGraphic" in2="back" mode="normal"/>
				</filter>
			</defs>
			<mask maskUnits="userSpaceOnUse" x="438.5" y="450.5" width="200.1" height="93.1" id="SVGID_1_">
				<g class="st2">
					<image style="overflow:visible;" width="205" height="98" xlink:href="35ED11EB.jpg"  transform="matrix(1 0 0 1 436 448)">
					</image>
				</g>
			</mask>
			<g class="st3">
				<g>
					<g>
						<path class="st4" d="M611.8,494.2l-15.6-2.8c-1.2-0.2-2.2-0.9-2.9-1.8c-12.5-17.6-23.5-13.5-23.6-13.5c-1.8,0.8-4,0.3-5.2-1.3
							c-17.3-20.7-45.9-3.2-46.2-3.1c-1.9,1.2-4.4,0.8-5.8-0.9l-9.2-10.9l-55.8,12.4v29.2l45.9,29l113.6,3.9l20.9-24.2L611.8,494.2z
							"/>
						<path d="M638.6,509.3c-0.2-1.2-1-2.2-1.8-3.1c-5.9-6.6-14.3-17.8-22.8-20.8c-4.4-1.5-9.8-1.7-14.5-2.6
							c-12.3-16.3-24.3-16.8-30-15.9c-16.3-17-39.6-11.4-52.5-4.7l-8.6-10.2c-1.1-1.3-2.8-1.8-4.4-1.5l-62,13.7
							c-2.1,0.5-3.5,2.3-3.5,4.4V504c0,1.5,0.8,3,2.1,3.8l49,31c0.7,0.4,1.5,0.7,2.3,0.7c23.5,0.8,46.9,1.6,70.4,2.4
							c13.2,0.5,26.5,0.9,39.7,1.4c2.1,0.1,4.8,0.6,6.9,0.2c0.1,0,0.1,0,0.2,0c5.1-1.1,9.1-8,12.5-11.9c5.1-5.9,10.2-11.8,15.2-17.9
							C637.7,512.4,638.8,510.9,638.6,509.3z M493.4,530.5l-45.9-29v-29.2l55.8-12.4l9.2,10.9c1.4,1.7,3.9,2.1,5.8,0.9
							c0.3-0.2,28.9-17.7,46.2,3.1c1.3,1.5,3.4,2,5.2,1.3c0.1,0,11-4.1,23.6,13.5c0.7,1,1.7,1.6,2.9,1.8l15.6,2.8l16,16L607,534.4
							L493.4,530.5z"/>
					</g>
				</g>
			</g>
		</g>
		<g>
			<defs>
				<filter id="Adobe_OpacityMaskFilter_1_" filterUnits="userSpaceOnUse" x="486" y="456.6" width="110.1" height="51.4">
					<feFlood  style="flood-color:white;flood-opacity:1" result="back"/>
					<feBlend  in="SourceGraphic" in2="back" mode="normal"/>
				</filter>
			</defs>
			<mask maskUnits="userSpaceOnUse" x="486" y="456.6" width="110.1" height="51.4" id="SVGID_2_">
				<g class="st5">
					<image style="overflow:visible;" width="115" height="56" xlink:href="35ED11E0.jpg"  transform="matrix(1 0 0 1 484 454)">
					</image>
				</g>
			</mask>
			<g class="st6">
				<g>
					<path d="M563.5,508C563.5,508,563.4,508,563.5,508c-1.8,0-41.8-1.1-66.9-8.1c-0.4-0.1-0.8-0.3-1.2-0.6l-8-6
						c-1.1-0.8-1.6-2.2-1.3-3.5c0.2-0.8,4-18.8,28.1-21.6c3-4.1,12.5-14.2,31.5-11c2.5,0,17.2,0.6,26.6,11
						c9.6,1.6,25.3,8.4,23.7,24.4c0,1-0.3,2.9-2.1,5.1c-4.2,5.2-14.4,8.7-30.1,10.3C563.7,508,563.6,508,563.5,508z M499.1,493.3
						c23.4,6.4,61.1,7.6,64.3,7.7c22.8-2.3,25.4-8,25.6-8.5c0-0.1,0-0.2,0-0.4c1.6-14.4-18.1-17-19-17.1c-0.9-0.1-1.7-0.6-2.3-1.3
						c-7.7-9.4-21.8-9.5-22.4-9.5c-0.1,0,0,0-0.1,0c-0.2,0-0.4,0-0.6-0.1c-18.2-3.2-25.2,8.5-25.5,9c-0.6,1-1.6,1.7-2.8,1.8
						c-15.8,1.4-21.2,10.2-22.9,14.2L499.1,493.3z M589,492.9C589,492.9,589,492.9,589,492.9C589,492.9,589,492.9,589,492.9z
						 M589,492.9C589,492.9,589,492.9,589,492.9C589,492.9,589,492.9,589,492.9z M589,492.9C589,492.9,589,492.9,589,492.9
						C589,492.9,589,492.9,589,492.9z M589,492.9C589,492.9,589,492.9,589,492.9C589,492.9,589,492.9,589,492.9z M589,492.9
						C589,492.9,589,492.9,589,492.9C589,492.9,589,492.9,589,492.9z"/>
				</g>
			</g>
		</g>
		<g>
			<defs>
				<filter id="Adobe_OpacityMaskFilter_2_" filterUnits="userSpaceOnUse" x="389.5" y="394.5" width="116" height="75.7">
					<feFlood  style="flood-color:white;flood-opacity:1" result="back"/>
					<feBlend  in="SourceGraphic" in2="back" mode="normal"/>
				</filter>
			</defs>
			<mask maskUnits="userSpaceOnUse" x="389.5" y="394.5" width="116" height="75.7" id="SVGID_3_">
				<g class="st7">
					<image style="overflow:visible;" width="121" height="81" xlink:href="35ED11E1.jpg"  transform="matrix(1 0 0 1 387 392)">
					</image>
				</g>
			</mask>
			<g class="st8">
				<g>
					<path d="M450.1,470.2c-0.7,0-1.3-0.2-1.9-0.6l-57.6-45.7c-1.1-0.9-1.5-2.4-0.8-3.7c0.7-1.4,1.7-3.4,26.7-14.9
						c11.9-5.5,23.7-10.5,23.8-10.5c1.1-0.5,2.3-0.3,3.1,0.5l61,53c0.7,0.6,1.1,1.6,1,2.5c-0.1,1-0.6,1.8-1.4,2.3l-13,7.9
						c-0.3,0.2-0.6,0.3-0.9,0.4l-39.4,8.7C450.5,470.1,450.3,470.2,450.1,470.2z M397.3,421.5l53.5,42.4l37.6-8.3l9.1-5.5L441,401
						 M395,423.2L395,423.2L395,423.2z"/>
				</g>
			</g>
		</g>
		<g>
			<defs>
				<filter id="Adobe_OpacityMaskFilter_3_" filterUnits="userSpaceOnUse" x="440" y="464.2" width="52.5" height="55.8">
					<feFlood  style="flood-color:white;flood-opacity:1" result="back"/>
					<feBlend  in="SourceGraphic" in2="back" mode="normal"/>
				</filter>
			</defs>
			<mask maskUnits="userSpaceOnUse" x="440" y="464.2" width="52.5" height="55.8" id="SVGID_4_">
				<g class="st9">
					<image style="overflow:visible;" width="57" height="60" xlink:href="35ED11E2.jpg"  transform="matrix(1 0 0 1 438 462)">
					</image>
				</g>
			</mask>
			<g class="st10">
				<g>
					<path d="M459,520c-0.7,0-1.3-0.2-1.8-0.6l-16-12.5c-0.7-0.6-1.2-1.4-1.2-2.4V471c0-1.1,0.6-2.1,1.6-2.6l7.1-3.8
						c1-0.6,2.3-0.5,3.2,0.2l39.4,29.8c1.2,0.9,1.5,2.4,0.9,3.7c-0.6,1.3-2.1,1.9-3.5,1.5c-14.9-4.3-26.9,18.3-27,18.5
						c-0.4,0.8-1.2,1.4-2,1.5C459.4,520,459.2,520,459,520z M446,503l12.1,9.5c3.4-5.4,11.4-16.2,22.2-18.7l-30.5-23.1l-3.8,2.1V503
						z"/>
				</g>
			</g>
		</g>
		<g>
			<defs>
				<filter id="Adobe_OpacityMaskFilter_4_" filterUnits="userSpaceOnUse" x="508" y="506.7" width="2.9" height="3">
					<feFlood  style="flood-color:white;flood-opacity:1" result="back"/>
					<feBlend  in="SourceGraphic" in2="back" mode="normal"/>
				</filter>
			</defs>
			<mask maskUnits="userSpaceOnUse" x="508" y="506.7" width="2.9" height="3" id="SVGID_5_">
				<g class="st11">
					<image style="overflow:visible;" width="8" height="8" xlink:href="35ED11E3.jpg"  transform="matrix(1 0 0 1 505 504)">
					</image>
				</g>
			</mask>
			<g class="st12">
				<g>
					<path class="st13" d="M509.4,506.7c-1.9,0-1.9,3,0,3C511.3,509.7,511.3,506.7,509.4,506.7z"/>
				</g>
			</g>
		</g>
		<g>
			<defs>
				<filter id="Adobe_OpacityMaskFilter_5_" filterUnits="userSpaceOnUse" x="506.3" y="504.7" width="53.5" height="34.1">
					<feFlood  style="flood-color:white;flood-opacity:1" result="back"/>
					<feBlend  in="SourceGraphic" in2="back" mode="normal"/>
				</filter>
			</defs>
			<mask maskUnits="userSpaceOnUse" x="506.3" y="504.7" width="53.5" height="34.1" id="SVGID_6_">
				<g class="st14">
					<image style="overflow:visible;" width="58" height="39" xlink:href="35ED11E4.jpg"  transform="matrix(1 0 0 1 504 502)">
					</image>
				</g>
			</mask>
			<g class="st15">
				<g>
					<path class="st13" d="M506.7,507.4c2.5,2.9,4.2,6.5,5,10.3c0.4,1.8,0.2,3.8,1.1,5.6c0.8,1.6,2.4,2.5,4,3.1
						c7.8,2.9,16.6,3.7,24.9,4c4.9,0.2,9.8,0.2,14.7,0.1c-0.5-0.5-1-1-1.5-1.5c0.4,3.1,1,6,2.1,8.9c0.7-0.6,1.5-1.1,2.2-1.7
						c-3.9-1.7-8-2.9-12.2-3.6c-4.2-0.7-8.5-0.5-12.7-1.2c-4.1-0.6-8-2.1-12.1-2.7c-4.2-0.7-8.5-0.6-12.6,0.5
						c0.6,0.6,1.2,1.2,1.8,1.8c2.5-7.2,4.8-16.1-1.2-22.3c-1.2-1.3-3.1,0.3-2.4,1.8c2.2,4.4,3,9.4,2.3,14.2
						c-0.2,1.1-0.4,2.2-0.7,3.3c-0.4,1.2-1,2.3-1.3,3.5c-0.9,3,2.5,3.5,4.6,4c10.7,2.2,21.6,1,32.4,1.6c2.4,0.1,5.7,1.1,7.8-0.5
						c1.8-1.4,2-4.1,0.1-5.5c-0.1,0.9-0.2,1.8-0.4,2.7c-0.8-0.1-0.9-0.4-0.3-1c-1.4,1-0.6,3.1,1.2,2.7c1.5-0.3,2.2-1.7,2.1-3.2
						c-0.2-1.7-1.6-2.8-3.2-3.1c-2-0.4-4.2-0.1-6.3-0.2c-2.2-0.1-4.3-0.2-6.5-0.3c-8.9-0.7-17.8-2.2-26.5-4.4
						c-0.5-0.1-1.1,0-1.5,0.4c-0.9,1.1-1.1,2.5-0.4,3.8c0.6,1.2,1.9,2,3.2,1.9c1.9-0.2,1.9-3.2,0-3c-1.7,0.2-4.1,1.1-3.9,3.2
						c0.2,2.3,3.4,2.8,5.2,3.3c4.8,1.5,9.9,2.3,14.7,0.1c1.4-0.6,0.7-2.9-0.8-2.8c-3,0.1-5.8-0.3-8.6-1.3c-0.1,1-0.3,2-0.4,2.9
						c11.4-0.6,22.9,0.6,34,3.5c0.8,0.2,1.6-0.3,1.8-1c0.7-1.9,1-4,0.9-6c-0.8,0.4-1.5,0.9-2.3,1.3c1.5,1.1,0.3,3.6-1.3,2.4
						c-0.4,0.9-0.8,1.8-1.2,2.7c3.1,1.2,6.5-2.2,5.4-5.2c-0.5-1.5-3.1-1.4-2.9,0.4c0.1,1.4-2.1,1.5-3.1,1.6
						c-1.7,0.2-3.2,0.5-4.5,1.7c-0.9,0.9-0.3,2.1,0.7,2.5c2.3,1,4.7,1.4,7.2,1.5c1.9,0.1,1.9-2.9,0-3c-2.2-0.1-4.4-0.6-6.4-1.4
						c0.2,0.8,0.4,1.7,0.7,2.5c1.3-1.3,3.8-0.7,5.5-1.4c1.7-0.7,3.2-2.1,3-4c-1,0.1-2,0.3-2.9,0.4c0.4,1.1-0.7,1.9-1.7,1.6
						c-1.7-0.7-2.4,1.8-1.2,2.7c1.9,1.4,4.8,0.7,6-1.3c1.4-2.2,0.3-4.9-1.6-6.3c-0.9-0.6-2.3,0.2-2.3,1.3c0.1,1.8-0.1,3.5-0.8,5.2
						c0.6-0.3,1.2-0.7,1.8-1c-11.3-2.9-23.1-4.2-34.8-3.6c-1.7,0.1-2,2.4-0.4,2.9c3,1.1,6.2,1.5,9.4,1.4c-0.3-0.9-0.5-1.9-0.8-2.8
						c-2.9,1.3-6.1,1.1-9.1,0.4c-1.5-0.3-3-0.8-4.5-1.3c-0.2-0.1-1.7-0.8-1.9-0.7c-0.2,0.6-0.1,0.8,0.1,0.7c0.1,0,0.2-0.1,0.3-0.2
						c0.2,0,0.5-0.2,0.7-0.2c0-1,0-2,0-3c-0.2,0-1-0.2-0.7-0.6c-0.5,0.1-1,0.3-1.5,0.4c7.1,1.8,14.2,3.2,21.5,4
						c3.6,0.4,7.2,0.7,10.8,0.8c1.8,0.1,3.5,0.1,5.3,0.1c0.7,0,1.7-0.1,2.3,0.2c0.2,0.1,0.2,0.2,0.3,0.3c0.3,0.2-0.6,0.1,0.1,0
						c0.4,0.9,0.8,1.8,1.2,2.7c2.1-1.5,0.7-5.2-2-4.5c-1.3,0.4-1.4,2-0.4,2.7c-0.2-0.1,0,0.2-0.2,0.3c-0.2,0.2-0.5,0.4-0.9,0.4
						c-1.1,0.2-2.4-0.1-3.5-0.2c-2.3-0.2-4.5-0.3-6.8-0.3c-4.6-0.1-9.2,0-13.9-0.1c-4.7-0.1-9.4-0.4-13.9-1.5
						c-0.3-0.1-1.3-0.5-1.5-0.4c-0.4,0.1,0.3,0.3,0.1,0.4c0.1,0,0.3-0.6,0.3-0.8c0.4-1,0.8-1.9,1-2.9c0.6-2,0.9-4.1,1-6.1
						c0.2-4.7-0.8-9.3-2.9-13.5c-0.8,0.6-1.6,1.2-2.4,1.8c5.2,5.3,2.5,13.3,0.5,19.4c-0.4,1.1,0.8,2.1,1.8,1.8c3.9-1,8-1.1,11.9-0.3
						c3.9,0.8,7.7,2.1,11.6,2.6c4.1,0.6,8.2,0.5,12.3,1.1c3.9,0.6,7.8,1.7,11.5,3.3c1.1,0.5,2.7-0.3,2.2-1.7
						c-0.9-2.6-1.6-5.3-1.9-8.1c-0.1-0.8-0.6-1.5-1.5-1.5c-8.2,0.1-16.5,0.2-24.7-0.9c-4.1-0.5-8.1-1.3-12.1-2.5
						c-1.5-0.4-3.5-0.8-4.2-2.4c-0.7-1.6-0.5-3.7-0.9-5.4c-0.9-4.1-2.9-7.8-5.6-11C507.5,503.8,505.4,505.9,506.7,507.4L506.7,507.4
						z"/>
				</g>
			</g>
		</g>
		<g>
			<defs>
				<filter id="Adobe_OpacityMaskFilter_6_" filterUnits="userSpaceOnUse" x="604.9" y="508.8" width="20.9" height="26.9">
					<feFlood  style="flood-color:white;flood-opacity:1" result="back"/>
					<feBlend  in="SourceGraphic" in2="back" mode="normal"/>
				</filter>
			</defs>
			<mask maskUnits="userSpaceOnUse" x="604.9" y="508.8" width="20.9" height="26.9" id="SVGID_7_">
				<g class="st16">
					<image style="overflow:visible;" width="26" height="32" xlink:href="35ED11E5.jpg"  transform="matrix(1 0 0 1 602 506)">
					</image>
				</g>
			</mask>
			<g class="st17">
				<g>
					<path class="st13" d="M622.6,510.2c0.3,2.2,0.5,4.3-1.1,6.1c-1.6,1.9-3.3,3.7-5,5.5c-3.4,3.8-6.8,7.5-10.2,11.3
						c0.8,0.2,1.7,0.4,2.5,0.7c-0.4-1.2,0.4-2.5,0.8-3.6c0.4-1.3,0.5-2.6,0.5-4c-0.1-2.6-0.9-5.2-2.3-7.4c-0.8,0.6-1.6,1.2-2.4,1.8
						c3.8,3.5,8.8,1.5,12.7-0.6c1.7-0.9,0.2-3.5-1.5-2.6c-3.5,1.7-7.2,3.8-8.8,7.6c-0.5,1.1,0.3,2.6,1.7,2.2c2.2-0.7,4.2-1.8,6-3.3
						c1.2-1-0.1-2.9-1.5-2.5c-2.4,0.7-4.5,2.2-5.7,4.4c-0.7,1.3,0.7,2.9,2.1,2.1c5.8-3.6,9.9-9,14-14.3c1-1.3-1.2-3.1-2.4-1.8
						c-3.6,4.2-7.2,8.4-10.8,12.6c-1.3,1.5,0.9,3.6,2.1,2.1c3.6-4.2,7.2-8.4,10.8-12.6c-0.8-0.6-1.6-1.2-2.4-1.8
						c-3.7,4.9-7.6,9.9-12.9,13.2c0.7,0.7,1.4,1.4,2.1,2.1c0.9-1.6,2.2-2.6,3.9-3.1c-0.5-0.8-1-1.7-1.5-2.5c-1.4,1.2-3,2-4.7,2.5
						c0.6,0.7,1.1,1.5,1.7,2.2c1.4-3.3,4.7-5,7.7-6.5c-0.5-0.9-1-1.7-1.5-2.6c-2.6,1.4-6.4,3.5-9,1c-1.2-1.1-3.3,0.3-2.4,1.8
						c1.4,2.1,2,4.5,1.9,7c-0.2,2.4-2,4.8-1.1,7.3c0.4,1,1.7,1.6,2.5,0.7c3.7-4.1,7.5-8.2,11.2-12.3c1.7-1.8,3.6-3.6,5-5.6
						c1.4-2.1,1.3-4.7,1-7.1C625.4,508.3,622.4,508.3,622.6,510.2L622.6,510.2z"/>
				</g>
			</g>
		</g>
		<g>
			<defs>
				<filter id="Adobe_OpacityMaskFilter_7_" filterUnits="userSpaceOnUse" x="608.7" y="524.3" width="5.1" height="5.8">
					<feFlood  style="flood-color:white;flood-opacity:1" result="back"/>
					<feBlend  in="SourceGraphic" in2="back" mode="normal"/>
				</filter>
			</defs>
			<mask maskUnits="userSpaceOnUse" x="608.7" y="524.3" width="5.1" height="5.8" id="SVGID_8_">
				<g class="st18">
					<image style="overflow:visible;" width="10" height="11" xlink:href="35ED11E7.jpg"  transform="matrix(1 0 0 1 606 522)">
					</image>
				</g>
			</mask>
			<g class="st19">
				<g>
					<path class="st13" d="M610.8,525.4c-0.1,0.2-0.1,0.3-0.2,0.5c0.1-0.1,0.1-0.2,0.2-0.4c-0.2,0.4-0.4,0.8-0.7,1.2
						c0.1-0.1,0.2-0.2,0.2-0.3c-0.3,0.3-0.6,0.7-0.9,0.9c0.1-0.1,0.2-0.2,0.3-0.2c-0.1,0.1-0.2,0.1-0.3,0.2
						c-0.3,0.2-0.6,0.5-0.7,0.9c-0.1,0.4-0.1,0.8,0.2,1.2c0.2,0.3,0.5,0.6,0.9,0.7c0.4,0.1,0.8,0.1,1.2-0.2c0.3-0.2,0.7-0.5,1-0.8
						c0.3-0.3,0.6-0.6,0.8-1c0.4-0.6,0.7-1.3,1-1.9c0.1-0.4,0-0.8-0.2-1.2c-0.2-0.3-0.5-0.6-0.9-0.7c-0.4-0.1-0.8-0.1-1.2,0.2
						C611.2,524.7,610.9,525,610.8,525.4L610.8,525.4z"/>
				</g>
			</g>
		</g>
		<g>
			<defs>
				<filter id="Adobe_OpacityMaskFilter_8_" filterUnits="userSpaceOnUse" x="527.9" y="513.8" width="32.5" height="6.8">
					<feFlood  style="flood-color:white;flood-opacity:1" result="back"/>
					<feBlend  in="SourceGraphic" in2="back" mode="normal"/>
				</filter>
			</defs>
			<mask maskUnits="userSpaceOnUse" x="527.9" y="513.8" width="32.5" height="6.8" id="SVGID_9_">
				<g class="st20">
					<image style="overflow:visible;" width="38" height="12" xlink:href="CB439798.jpg"  transform="matrix(1 0 0 1 525 511)">
					</image>
				</g>
			</mask>
			<g class="st21">
				<g>
					<path class="st13" d="M529.8,516.9c2.5-0.5,5,0.2,7.4,0.8c2.3,0.6,4.7,1.3,7.1,1.7c4.9,0.8,9.8,1,14.7,1.2c1.9,0.1,1.9-2.9,0-3
						c-5.1-0.2-10.3-0.4-15.3-1.3c-4.9-0.9-9.6-3.2-14.7-2.2C527.1,514.4,527.9,517.3,529.8,516.9L529.8,516.9z"/>
				</g>
			</g>
		</g>
		<g>
			<defs>
				<filter id="Adobe_OpacityMaskFilter_9_" filterUnits="userSpaceOnUse" x="559.4" y="475.9" width="21.9" height="24.6">
					<feFlood  style="flood-color:white;flood-opacity:1" result="back"/>
					<feBlend  in="SourceGraphic" in2="back" mode="normal"/>
				</filter>
			</defs>
			<mask maskUnits="userSpaceOnUse" x="559.4" y="475.9" width="21.9" height="24.6" id="SVGID_10_">
				<g class="st22">
					<image style="overflow:visible;" width="27" height="30" xlink:href="CB439799.jpg"  transform="matrix(1 0 0 1 557 473)">
					</image>
				</g>
			</mask>
			<g class="st23">
				<g>
					<path class="st13" d="M571.5,478.5c1,1,2.3,1.6,3.7,2.1c1.1,0.4,2.5,0.7,3.3,1.6c0.3-0.7,0.6-1.5,0.9-2.2
						c-5.3,1.2-10.4,3.4-14.9,6.4c-2.1,1.4-3.8,2.9-4.5,5.4c-0.7,2.3-0.5,4.9-0.3,7.3c0.1,0.8,0.6,1.5,1.5,1.5
						c0.7,0,1.6-0.7,1.5-1.5c-0.2-2-0.5-4.2,0.1-6.2c0.6-2.2,2.4-3.3,4.2-4.5c4.1-2.6,8.6-4.4,13.3-5.4c0.9-0.2,1.5-1.4,0.9-2.2
						c-1-1.3-2.2-2-3.7-2.5c-1.3-0.5-2.7-0.8-3.7-1.8C572.3,475,570.2,477.1,571.5,478.5L571.5,478.5z"/>
				</g>
			</g>
		</g>
		<g>
			<defs>
				<filter id="Adobe_OpacityMaskFilter_10_" filterUnits="userSpaceOnUse" x="570.3" y="476.8" width="4.4" height="6.1">
					<feFlood  style="flood-color:white;flood-opacity:1" result="back"/>
					<feBlend  in="SourceGraphic" in2="back" mode="normal"/>
				</filter>
			</defs>
			<mask maskUnits="userSpaceOnUse" x="570.3" y="476.8" width="4.4" height="6.1" id="SVGID_11_">
				<g class="st24">
					<image style="overflow:visible;" width="9" height="11" xlink:href="CB439780.jpg"  transform="matrix(1 0 0 1 568 474)">
					</image>
				</g>
			</mask>
			<g class="st25">
				<g>
					<path class="st13" d="M574.2,482.1c0.3-0.7,0.6-1.5,0.6-2.3c0-0.8-0.2-1.6-0.5-2.3c-0.2-0.4-0.7-0.7-1.1-0.7
						c-0.5-0.1-0.9,0.1-1.3,0.4c-0.4,0.3-0.7,0.7-1,1.2c-0.3,0.4-0.4,0.9-0.5,1.4c-0.1,0.4-0.1,0.8,0.2,1.2c0.2,0.3,0.5,0.6,0.9,0.7
						c0.4,0.1,0.8,0.1,1.2-0.2c0.3-0.2,0.6-0.5,0.7-0.9c0-0.2,0.1-0.4,0.2-0.7c-0.1,0.1-0.1,0.2-0.2,0.4c0.1-0.3,0.3-0.5,0.4-0.8
						c-0.1,0.1-0.2,0.2-0.2,0.3c0.1-0.2,0.3-0.3,0.5-0.5c-0.8-0.1-1.6-0.2-2.4-0.3c0,0,0,0.1,0.1,0.1c-0.1-0.1-0.1-0.2-0.2-0.4
						c0.1,0.3,0.2,0.6,0.2,0.9c0-0.1,0-0.3-0.1-0.4c0,0.3,0,0.6,0,0.9c0-0.1,0-0.3,0.1-0.4c0,0.3-0.1,0.7-0.3,1
						c0.1-0.1,0.1-0.2,0.2-0.4c0,0,0,0.1-0.1,0.1c-0.2,0.4-0.3,0.7-0.2,1.2c0.1,0.3,0.4,0.7,0.7,0.9c0.3,0.2,0.8,0.3,1.2,0.2
						C573.7,482.7,574.1,482.5,574.2,482.1L574.2,482.1z"/>
				</g>
			</g>
		</g>
		<g>
			<defs>
				<filter id="Adobe_OpacityMaskFilter_11_" filterUnits="userSpaceOnUse" x="570.2" y="475.3" width="9.6" height="8.3">
					<feFlood  style="flood-color:white;flood-opacity:1" result="back"/>
					<feBlend  in="SourceGraphic" in2="back" mode="normal"/>
				</filter>
			</defs>
			<mask maskUnits="userSpaceOnUse" x="570.2" y="475.3" width="9.6" height="8.3" id="SVGID_12_">
				<g class="st26">
					<image style="overflow:visible;" width="14" height="13" xlink:href="CB439781.jpg"  transform="matrix(1 0 0 1 568 473)">
					</image>
				</g>
			</mask>
			<g class="st27">
				<g>
					<path class="st13" d="M573.9,479.1c-0.2,0.2-0.4,0.4-0.6,0.5c-0.1,0.1-0.4,0.4-0.1,0.1c-0.1,0.1-0.2,0.2-0.3,0.2
						c-0.5,0.3-0.9,0.6-1.4,0.8c0.8,0.4,1.5,0.9,2.3,1.3c0-1.4,0-2.8,0-4.2c-0.8,0.4-1.5,0.9-2.3,1.3c2.1,1,4.3,1.9,6.5,2.6
						c0.7,0.2,1.5-0.2,1.8-0.9c0.3-0.7,0-1.4-0.6-1.9c-2.1-1.6-4.5-2.8-7-3.6c-0.7-0.3-1.7,0.3-1.8,1c-0.2,0.8,0.3,1.6,1,1.8
						c0.3,0.1,0.6,0.2,0.9,0.3c0.1,0.1,0.3,0.1,0.4,0.2c0.1,0,0.1,0.1,0.2,0.1c-0.2-0.1-0.2-0.1,0,0c0.6,0.3,1.1,0.5,1.6,0.8
						c1.1,0.6,2.1,1.2,3.1,2c0.4-0.9,0.8-1.8,1.2-2.7c-1-0.3-2.1-0.7-3.1-1.1c-0.2-0.1-0.5-0.2-0.7-0.3c-0.1,0-0.2-0.1-0.2-0.1
						c0.1,0.1,0.2,0.1,0.1,0c-0.1-0.1-0.3-0.1-0.4-0.2c-0.5-0.2-1-0.4-1.5-0.7c-0.5-0.2-1-0.3-1.5,0c-0.5,0.3-0.7,0.8-0.7,1.3
						c0,1.4,0,2.8,0,4.2c0,0.5,0.3,1,0.7,1.3c0.5,0.3,1,0.2,1.5,0c1.1-0.5,2.2-1.2,3.1-2.1c0.5-0.6,0.6-1.6,0-2.1
						C575.5,478.6,574.5,478.5,573.9,479.1L573.9,479.1z"/>
				</g>
			</g>
		</g>
		<g>
			<defs>
				<filter id="Adobe_OpacityMaskFilter_12_" filterUnits="userSpaceOnUse" x="496.9" y="474.3" width="19.6" height="17.8">
					<feFlood  style="flood-color:white;flood-opacity:1" result="back"/>
					<feBlend  in="SourceGraphic" in2="back" mode="normal"/>
				</filter>
			</defs>
			<mask maskUnits="userSpaceOnUse" x="496.9" y="474.3" width="19.6" height="17.8" id="SVGID_13_">
				<g class="st28">
					<image style="overflow:visible;" width="25" height="23" xlink:href="CB439782.jpg"  transform="matrix(1 0 0 1 494 472)">
					</image>
				</g>
			</mask>
			<g class="st29">
				<g>
					<path class="st13" d="M514.6,474.3c-4.2,0.6-8.5,1.5-11.9,4.1c-3.6,2.9-4.9,7.4-5.8,11.7c-0.4,1.9,2.5,2.7,2.9,0.8
						c0.8-3.7,1.7-7.9,4.9-10.3c3-2.3,7-2.9,10.7-3.5c0.8-0.1,1.2-1.1,1-1.8C516.2,474.5,515.4,474.2,514.6,474.3L514.6,474.3z"/>
				</g>
			</g>
		</g>
		<g>
			<defs>
				<filter id="Adobe_OpacityMaskFilter_13_" filterUnits="userSpaceOnUse" x="499.8" y="479.5" width="7.5" height="13.7">
					<feFlood  style="flood-color:white;flood-opacity:1" result="back"/>
					<feBlend  in="SourceGraphic" in2="back" mode="normal"/>
				</filter>
			</defs>
			<mask maskUnits="userSpaceOnUse" x="499.8" y="479.5" width="7.5" height="13.7" id="SVGID_14_">
				<g class="st30">
					<image style="overflow:visible;" width="13" height="19" xlink:href="CB439783.jpg"  transform="matrix(1 0 0 1 497 477)">
					</image>
				</g>
			</mask>
			<g class="st31">
				<g>
					<path class="st13" d="M504.6,480.3c-2.1,3.4-3.7,7.2-4.7,11.1c-0.2,0.8,0.3,1.6,1,1.8c0.8,0.2,1.6-0.3,1.8-1
						c0.9-3.7,2.4-7.2,4.4-10.4c0.4-0.7,0.2-1.6-0.5-2.1C505.9,479.3,505,479.6,504.6,480.3L504.6,480.3z"/>
				</g>
			</g>
		</g>
		<g>
			<defs>
				<filter id="Adobe_OpacityMaskFilter_14_" filterUnits="userSpaceOnUse" x="497.6" y="479.8" width="8.7" height="14.3">
					<feFlood  style="flood-color:white;flood-opacity:1" result="back"/>
					<feBlend  in="SourceGraphic" in2="back" mode="normal"/>
				</filter>
			</defs>
			<mask maskUnits="userSpaceOnUse" x="497.6" y="479.8" width="8.7" height="14.3" id="SVGID_15_">
				<g class="st32">
					<image style="overflow:visible;" width="14" height="20" xlink:href="CB4397BC.jpg"  transform="matrix(1 0 0 1 495 477)">
					</image>
				</g>
			</mask>
			<g class="st33">
				<g>
					<path class="st13" d="M503.5,480.6c-0.8,1.9-1.7,3.8-2.5,5.8c-0.4,0.8-0.7,1.7-1.1,2.5c-0.2,0.3-0.2,0.4-0.5,0.7
						c0,0,0,0,0.1-0.1c-0.2,0.1-0.2,0.1,0,0c-0.2,0-0.2,0,0,0c-0.1,0-0.2,0-0.3,0c-0.9-0.1-1.7,1.1-1.4,1.9c0.6,1.6,2,2.7,3.8,2.8
						c1.9,0,1.9-3,0-3c-0.2,0-0.2,0-0.1,0c-0.1,0-0.2,0-0.3-0.1c0.2,0.1-0.2-0.1-0.2-0.1c0.1,0.1-0.2-0.2-0.2-0.2
						c0.2,0.2-0.2-0.4-0.1-0.2c-0.5,0.6-1,1.3-1.4,1.9c2.3,0.3,3.4-2.1,4.2-3.8c1-2.2,1.9-4.4,2.9-6.6c0.3-0.7,0.2-1.6-0.5-2.1
						C505,479.7,503.9,479.8,503.5,480.6L503.5,480.6z"/>
				</g>
			</g>
		</g>
		<g>
			<defs>
				<filter id="Adobe_OpacityMaskFilter_15_" filterUnits="userSpaceOnUse" x="506.1" y="474.8" width="15" height="11.6">
					<feFlood  style="flood-color:white;flood-opacity:1" result="back"/>
					<feBlend  in="SourceGraphic" in2="back" mode="normal"/>
				</filter>
			</defs>
			<mask maskUnits="userSpaceOnUse" x="506.1" y="474.8" width="15" height="11.6" id="SVGID_16_">
				<g class="st34">
					<image style="overflow:visible;" width="20" height="17" xlink:href="CB4397BD.jpg"  transform="matrix(1 0 0 1 504 472)">
					</image>
				</g>
			</mask>
			<g class="st35">
				<g>
					<path class="st13" d="M506.8,480.9c3.5,2.2,7.2,3.9,11.1,5.1c0.3-1,0.5-1.9,0.8-2.9c-2.5-0.8-4.6-2.6-5.9-4.9
						c-0.1,0.6-0.2,1.2-0.2,1.8c0.7-0.8,1.7-1.5,2.7-1.6c-0.5-0.6-1-1.3-1.4-1.9c-1.5,4,1.2,8.9,5.3,9.8c0.7,0.1,1.3-0.1,1.7-0.7
						c0.3-0.6,0.3-1.4-0.2-1.8c-2.2-2-3.4-4.7-3.4-7.6c0-1.9-3-1.9-3,0c0,3.7,1.6,7.3,4.3,9.7c0.5-0.8,1-1.7,1.5-2.5
						c-1.4-0.3-2.3-1.1-3-2.3c-0.2-0.4-0.2-0.4-0.3-0.8c-0.1-0.2-0.1-0.4-0.2-0.6c0-0.1,0-0.2-0.1-0.3c0,0.1,0,0.1,0-0.1
						c0-0.9,0-1.2,0.3-2c0.3-0.8-0.5-2-1.4-1.9c-1.9,0.2-3.6,1-4.8,2.5c-0.4,0.5-0.6,1.2-0.2,1.8c1.6,3,4.4,5.3,7.7,6.3
						c1.8,0.6,2.6-2.3,0.8-2.9c-3.7-1.2-7.2-2.8-10.4-4.8C506.6,477.3,505.1,479.9,506.8,480.9L506.8,480.9z"/>
				</g>
			</g>
		</g>
		<g>
			<defs>
				<filter id="Adobe_OpacityMaskFilter_16_" filterUnits="userSpaceOnUse" x="508.2" y="476.3" width="5.9" height="4.7">
					<feFlood  style="flood-color:white;flood-opacity:1" result="back"/>
					<feBlend  in="SourceGraphic" in2="back" mode="normal"/>
				</filter>
			</defs>
			<mask maskUnits="userSpaceOnUse" x="508.2" y="476.3" width="5.9" height="4.7" id="SVGID_17_">
				<g class="st36">
					<image style="overflow:visible;" width="11" height="10" xlink:href="CB4397BE.jpg"  transform="matrix(1 0 0 1 506 474)">
					</image>
				</g>
			</mask>
			<g class="st37">
				<g>
					<path class="st13" d="M513,478.1c-0.8-0.3-1.7-0.7-2.5-1c0.1,0.1,0.2,0.1,0.4,0.2c-0.1,0-0.2-0.1-0.3-0.1
						c0.1,0.1,0.2,0.2,0.3,0.2c0,0-0.1-0.1-0.1-0.1c0.1,0.1,0.2,0.2,0.2,0.3c0,0,0-0.1-0.1-0.1c0.1,0.1,0.1,0.2,0.2,0.4
						c0,0,0,0,0-0.1c0,0.1,0,0.3,0.1,0.4c0,0,0,0,0,0c0,0.1,0,0.3-0.1,0.4c0,0,0,0,0-0.1c-0.1,0.1-0.1,0.2-0.2,0.4c0,0,0,0,0-0.1
						c-0.1,0.1-0.2,0.2-0.2,0.3c0,0,0,0,0.1-0.1c-0.1,0.1-0.2,0.2-0.3,0.2c0,0,0,0,0.1,0c-0.1,0.1-0.2,0.1-0.4,0.2c0,0,0,0,0.1,0
						c-0.1,0-0.3,0-0.4,0.1c0,0,0,0,0.1,0c-0.1,0-0.3,0-0.4-0.1c0,0,0,0,0,0c-0.1-0.1-0.2-0.1-0.4-0.2c0,0,0,0,0,0
						c-0.1-0.1-0.2-0.2-0.3-0.2c0,0,0,0,0,0c-0.1-0.1-0.2-0.2-0.2-0.3c0,0,0,0,0,0c0.1,0.2,0.2,0.3,0.4,0.4c0.1,0.1,0.3,0.2,0.5,0.3
						c0.4,0.1,0.8,0.1,1.2-0.2c0.3-0.2,0.6-0.5,0.7-0.9c0.1-0.4,0.1-0.8-0.2-1.2c-0.1-0.1-0.2-0.2-0.3-0.3c-0.2-0.2-0.4-0.3-0.7-0.4
						c-0.3-0.1-0.6-0.1-0.9,0c-0.6,0.2-1.1,0.6-1.2,1.2c-0.1,0.6,0,1.1,0.3,1.6c0.3,0.3,0.6,0.5,0.9,0.7c0.9,0.4,1.8,0.7,2.7,1.1
						c0.3,0.1,0.9,0,1.2-0.2c0.3-0.2,0.6-0.5,0.7-0.9c0.1-0.4,0.1-0.8-0.2-1.2c-0.1-0.1-0.2-0.2-0.2-0.3
						C513.4,478.3,513.2,478.1,513,478.1L513,478.1z"/>
				</g>
			</g>
		</g>
		<g>
			<defs>
				<filter id="Adobe_OpacityMaskFilter_17_" filterUnits="userSpaceOnUse" x="446.2" y="471.6" width="12.7" height="31.3">
					<feFlood  style="flood-color:white;flood-opacity:1" result="back"/>
					<feBlend  in="SourceGraphic" in2="back" mode="normal"/>
				</filter>
			</defs>
			<mask maskUnits="userSpaceOnUse" x="446.2" y="471.6" width="12.7" height="31.3" id="SVGID_18_">
				<g class="st38">
					<image style="overflow:visible;" width="17" height="36" xlink:href="CB4397BF.jpg"  transform="matrix(1 0 0 1 444 469)">
					</image>
				</g>
			</mask>
			<g class="st39">
				<g>
					<path class="st13" d="M447.5,473c0.1,1.4-0.2,2.6-1,3.9c0.9,0.1,1.8,0.2,2.7,0.4c-0.1-0.3-0.2-0.2,0.1-0.2c0.2,0,0.3,0,0.5,0
						c0.6,0.2,1.1,0.9,1.4,1.3c1.1,1.5,3.6,0.2,2.6-1.5c-0.6-1.1-1.2-2.1-1.9-3.2c-0.7,0.7-1.4,1.4-2.1,2.1c2.3,1.2,1.7,4.1,1.2,6.1
						c-0.7,2.8-1.3,5.5-1.3,8.4c0,1.4,0,2.8,0.1,4.2c0.1,1.3,0,2.6,0.5,3.8c0.4,1.1,1.3,1.8,2.3,2.3c1.3,0.7,2.6,1.4,4,2.1
						c1.7,0.9,3.2-1.7,1.5-2.6c-1.3-0.7-2.5-1.3-3.8-2c-0.5-0.3-1-0.5-1.3-1c-0.3-0.6-0.2-1.4-0.2-2c-0.1-2.9-0.3-5.8,0.2-8.7
						c0.4-2.6,1.7-5.2,1.5-7.9c-0.1-2.2-1.1-4.4-3.2-5.4c-1.3-0.7-2.8,0.7-2.1,2.1c0.6,1.1,1.2,2.1,1.9,3.2c0.9-0.5,1.7-1,2.6-1.5
						c-1.1-1.6-2.8-3.3-4.9-2.8c-1.7,0.4-3.3,2.2-2.5,4c0.5,1.2,2,1.5,2.7,0.4c1-1.6,1.5-3.5,1.4-5.4
						C450.4,471.1,447.4,471.1,447.5,473L447.5,473z"/>
				</g>
			</g>
		</g>
		<g>
			<defs>
				<filter id="Adobe_OpacityMaskFilter_18_" filterUnits="userSpaceOnUse" x="453.8" y="492.4" width="23.1" height="13.6">
					<feFlood  style="flood-color:white;flood-opacity:1" result="back"/>
					<feBlend  in="SourceGraphic" in2="back" mode="normal"/>
				</filter>
			</defs>
			<mask maskUnits="userSpaceOnUse" x="453.8" y="492.4" width="23.1" height="13.6" id="SVGID_19_">
				<g class="st40">
					<image style="overflow:visible;" width="28" height="18" xlink:href="CB4397AD.jpg"  transform="matrix(1 0 0 1 451 490)">
					</image>
				</g>
			</mask>
			<g class="st41">
				<g>
					<path class="st13" d="M475,492.4c-7.9,1.4-15.2,5.3-20.8,11c-1.4,1.4,0.8,3.5,2.1,2.1c5.3-5.4,12.1-8.9,19.5-10.2
						C477.7,494.9,476.9,492,475,492.4L475,492.4z"/>
				</g>
			</g>
		</g>
		<g>
			<defs>
				<filter id="Adobe_OpacityMaskFilter_19_" filterUnits="userSpaceOnUse" x="455.4" y="494.9" width="16.4" height="13">
					<feFlood  style="flood-color:white;flood-opacity:1" result="back"/>
					<feBlend  in="SourceGraphic" in2="back" mode="normal"/>
				</filter>
			</defs>
			<mask maskUnits="userSpaceOnUse" x="455.4" y="494.9" width="16.4" height="13" id="SVGID_20_">
				<g class="st42">
					<image style="overflow:visible;" width="21" height="18" xlink:href="CB4397A0.jpg"  transform="matrix(1 0 0 1 453 492)">
					</image>
				</g>
			</mask>
			<g class="st43">
				<g>
					<path class="st13" d="M469.5,495.1c-3.8,1.8-7.3,4.1-10.6,6.8c-0.8,0.6-1.5,1.3-2.2,2c-0.9,0.8-1.8,2-1,3.3
						c0.7,1.1,2.3,1,2.9-0.1c0.7-1.3-0.3-2.8-1.8-2.4c-1.9,0.5-1.1,3.4,0.8,2.9c0,0,0.1,0,0.1,0c-0.4-0.1-0.8-0.1-1.2-0.2
						c0,0,0,0,0,0c-0.2-0.3-0.5-0.6-0.7-0.9c0,0,0,0,0,0.1c0-0.3,0-0.5,0-0.8c-0.1,0.3,0.1,0.1,0.5-0.6c0.3-0.1,0.5-0.1,0.8-0.2
						c0,0-0.1,0-0.1,0c0.3,0.1,0.5,0.1,0.8,0.2c0,0,0,0-0.1-0.1c0.2,0.2,0.4,0.4,0.5,0.5c0-0.1-0.1-0.1-0.1-0.2
						c0.1,0.3,0.1,0.5,0.2,0.8c0,0.1-0.1,0.2-0.1,0.2c0,0,0.4-0.4,0.4-0.4c0.2-0.2,0.4-0.4,0.7-0.6c0.5-0.5,1-0.9,1.6-1.4
						c1-0.8,2-1.6,3.1-2.4c2.2-1.5,4.5-2.9,7-4c0.7-0.3,0.9-1.4,0.5-2.1C471.1,494.9,470.2,494.7,469.5,495.1L469.5,495.1z"/>
				</g>
			</g>
		</g>
		<g>
			<defs>
				<filter id="Adobe_OpacityMaskFilter_20_" filterUnits="userSpaceOnUse" x="455.7" y="497.9" width="12.7" height="10.7">
					<feFlood  style="flood-color:white;flood-opacity:1" result="back"/>
					<feBlend  in="SourceGraphic" in2="back" mode="normal"/>
				</filter>
			</defs>
			<mask maskUnits="userSpaceOnUse" x="455.7" y="497.9" width="12.7" height="10.7" id="SVGID_21_">
				<g class="st44">
					<image style="overflow:visible;" width="18" height="16" xlink:href="CB4397A1.jpg"  transform="matrix(1 0 0 1 453 495)">
					</image>
				</g>
			</mask>
			<g class="st45">
				<g>
					<path class="st13" d="M461.4,504.8c2.1-1.2,4.1-2.5,6.2-3.7c0.7-0.4,1-1.4,0.5-2.1c-0.8-1.4-2.4-1.3-3.7-0.6
						c-0.5,0.3-1,0.6-1.4,1c-0.6,0.4-1.1,0.9-1.7,1.3c-1.9,1.6-3.7,3.4-5.2,5.4c-0.5,0.6-0.6,1.5,0,2.1c0.5,0.5,1.6,0.6,2.1,0
						c1.3-1.7,2.8-3.2,4.3-4.6c0.8-0.7,1.5-1.3,2.3-1.8c0.4-0.3,0.7-0.6,1.1-0.8c0.3-0.2-0.1,0,0.1,0c0,0,0.3-0.1,0.3-0.1
						c0,0.1-0.3,0-0.3,0c0.2,0.1,0.1,0-0.1-0.1c-0.1,0-0.2-0.1-0.3-0.2c0.2-0.7,0.4-1.4,0.5-2.1c-2.1,1.2-4.1,2.5-6.2,3.7
						c-0.7,0.4-1,1.3-0.5,2.1C459.8,505,460.7,505.2,461.4,504.8L461.4,504.8z"/>
				</g>
			</g>
		</g>
		<g>
			<defs>
				<filter id="Adobe_OpacityMaskFilter_21_" filterUnits="userSpaceOnUse" x="455" y="493.6" width="19.6" height="16.9">
					<feFlood  style="flood-color:white;flood-opacity:1" result="back"/>
					<feBlend  in="SourceGraphic" in2="back" mode="normal"/>
				</filter>
			</defs>
			<mask maskUnits="userSpaceOnUse" x="455" y="493.6" width="19.6" height="16.9" id="SVGID_22_">
				<g class="st46">
					<image style="overflow:visible;" width="25" height="22" xlink:href="CB4397A2.jpg"  transform="matrix(1 0 0 1 452 491)">
					</image>
				</g>
			</mask>
			<g class="st47">
				<g>
					<path class="st13" d="M459.7,502.4c-0.9,1.2-1.9,2.3-2.8,3.5c0.8,0.5,1.7,1,2.5,1.5c0.4-1.1,1.2-2,2.1-2.8
						c-0.8-0.6-1.6-1.2-2.4-1.8c-0.8,1.3-1.6,2.5-2.5,3.8c0.9,0.5,1.7,1,2.6,1.5c0.2-0.4,0.3-0.8,0.5-1.2c-0.9-0.4-1.8-0.8-2.7-1.2
						c-0.3,0.7-0.7,1.3-1.3,1.7c0.6,0.8,1.2,1.6,1.8,2.4c4.6-5.4,10.1-9.8,16.4-13.2c0.9-0.5,1-2.1,0-2.6c-3.2-1.4-6.2,1.2-8.7,3
						c-2.6,2-5.1,4.2-7.3,6.6c-1,1.1,0,2.9,1.5,2.5c1.2-0.3,2.2-0.9,3-1.8c-0.7-0.7-1.4-1.4-2.1-2.1c-1,1.1-1.5,2.3-1.7,3.8
						c-0.1,0.8,0.2,1.6,1,1.8c0.8,0.2,1.6-0.3,1.8-1c0.2-0.6,0.3-1.2,0.5-1.8c0.4-1.3-1.5-2.7-2.5-1.5c-1.2,1.5-2.1,3.1-2.7,5
						c-0.6,1.9,2.3,2.6,2.9,0.8c0.4-1.3,1-2.6,1.9-3.7c-0.8-0.5-1.7-1-2.5-1.5c-0.2,0.6-0.3,1.2-0.5,1.8c1,0.3,1.9,0.5,2.9,0.8
						c0.1-0.9,0.3-1.8,0.9-2.5c1.3-1.4-0.8-3.6-2.1-2.1c-0.5,0.5-1,0.8-1.7,1c0.5,0.8,1,1.7,1.5,2.5c1.9-2,3.9-3.9,6.1-5.6
						c1.1-0.8,2.2-1.6,3.3-2.4c0.7-0.5,2.1-1.5,3-1.1c0-0.9,0-1.7,0-2.6c-6.4,3.5-12.2,8.1-17,13.7c-0.5,0.6-0.6,1.4-0.1,2
						c0.4,0.5,1.3,0.8,1.9,0.4c1.3-0.9,2.1-2,2.7-3.5c0.6-1.6-2-2.7-2.7-1.2c-0.2,0.4-0.3,0.8-0.5,1.2c-0.8,1.7,1.5,3.2,2.6,1.5
						c0.8-1.3,1.6-2.5,2.5-3.8c0.4-0.6,0.2-1.5-0.4-1.9c-0.6-0.5-1.4-0.4-2,0.1c-1.3,1.1-2.3,2.5-2.9,4.1c-0.5,1.4,1.6,2.6,2.5,1.5
						c0.9-1.2,1.9-2.3,2.8-3.5c0.5-0.6,0.6-1.5,0-2.1C461.2,501.9,460.2,501.8,459.7,502.4L459.7,502.4z"/>
				</g>
			</g>
		</g>
		<g>
			<defs>
				<filter id="Adobe_OpacityMaskFilter_22_" filterUnits="userSpaceOnUse" x="444.4" y="476.8" width="15.4" height="34.7">
					<feFlood  style="flood-color:white;flood-opacity:1" result="back"/>
					<feBlend  in="SourceGraphic" in2="back" mode="normal"/>
				</filter>
			</defs>
			<mask maskUnits="userSpaceOnUse" x="444.4" y="476.8" width="15.4" height="34.7" id="SVGID_23_">
				<g class="st48">
					<image style="overflow:visible;" width="20" height="40" xlink:href="CB43979F.jpg"  transform="matrix(1 0 0 1 442 474)">
					</image>
				</g>
			</mask>
			<g class="st49">
				<g>
					<path class="st13" d="M456.9,507.4c-0.4,0.6-0.8,1.3-1.2,1.9c0.9,0.4,1.8,0.8,2.7,1.2c0.5-3-2-4.5-4.2-5.9
						c-1.4-0.8-2.8-1.6-4.1-2.4c-0.8-0.5-1.4-0.6-1.3-1.7c0.1-0.8,0.3-1.6,0.4-2.4c0.9-6.6,1.3-13.2,0.9-19.8
						c-0.1-1.8-2.3-1.9-2.9-0.4c-1,2.5-1.2,5.2-1.5,7.9c-0.3,3-0.6,6-0.9,9c-0.2,2.4-0.8,5,1,7c1.4,1.6,3.6,2.2,5.5,2.6
						c1.2,0.2,2.5-1,1.7-2.2c-1.2-1.6-2.3-3.3-3.5-4.9c-0.7,0.7-1.4,1.4-2.1,2.1c2,1.1,3.9,2.1,5.9,3.2c0.1-0.9,0.2-1.8,0.4-2.7
						c-0.3,0.1-0.7,0.2-1,0.3c-1.1,0.4-1.4,1.6-0.7,2.5c0.8,1,1.9,1.6,3.2,1.9c0.1-1,0.3-2,0.4-2.9c-1.7,0-2.5,1.6-1.8,3.1
						c0.8,1.8,3.4,0.2,2.6-1.5c0-0.1-0.1-0.1-0.1-0.2c0.1,0.4,0.1,0.8,0.2,1.2c-0.3,0.2-0.5,0.3-0.8,0.5c1.6,0,2.1-2.6,0.4-2.9
						c-0.8-0.2-1.3-0.5-1.8-1.1c-0.2,0.8-0.4,1.7-0.7,2.5c0.3-0.1,0.7-0.2,1-0.3c1.2-0.4,1.6-2.1,0.4-2.7c-2-1.1-3.9-2.1-5.9-3.2
						c-1.2-0.7-3,0.8-2.1,2.1c1.2,1.6,2.3,3.3,3.5,4.9c0.6-0.7,1.1-1.5,1.7-2.2c-1.4-0.3-3.4-0.6-4.3-1.8c-0.6-0.9-0.3-2.1-0.2-3.1
						c0.1-1.2,0.2-2.4,0.4-3.6c0.2-2.4,0.5-4.9,0.7-7.3c0.2-2.3,0.5-4.7,1.4-6.9c-1-0.1-2-0.3-2.9-0.4c0.3,6.5,0.1,13-0.9,19.5
						c-0.2,1.4-0.8,3.1-0.3,4.4c0.4,1.3,1.6,1.9,2.7,2.5c1.4,0.8,2.8,1.6,4.1,2.4c0.7,0.4,3,1.4,2.8,2.5c-0.3,1.7,1.8,2.6,2.7,1.2
						c0.4-0.6,0.8-1.3,1.2-1.9C460.6,507.3,458,505.8,456.9,507.4L456.9,507.4z"/>
				</g>
			</g>
		</g>
		<g>
			<defs>
				<filter id="Adobe_OpacityMaskFilter_23_" filterUnits="userSpaceOnUse" x="455.5" y="499.9" width="11.1" height="11.3">
					<feFlood  style="flood-color:white;flood-opacity:1" result="back"/>
					<feBlend  in="SourceGraphic" in2="back" mode="normal"/>
				</filter>
			</defs>
			<mask maskUnits="userSpaceOnUse" x="455.5" y="499.9" width="11.1" height="11.3" id="SVGID_24_">
				<g class="st50">
					<image style="overflow:visible;" width="16" height="17" xlink:href="CB4397E0.jpg"  transform="matrix(1 0 0 1 453 497)">
					</image>
				</g>
			</mask>
			<g class="st51">
				<g>
					<path class="st13" d="M464,500.4c-3.1,2.5-5.9,5.5-8.3,8.7c-0.5,0.6-0.1,1.7,0.5,2.1c0.8,0.4,1.5,0.1,2.1-0.5
						c0.1-0.1,0.2-0.2,0.2-0.3c0.2-0.2-0.2,0.3,0.1-0.1c0.1-0.2,0.3-0.4,0.4-0.5c0.3-0.4,0.6-0.7,0.9-1.1c0.6-0.7,1.3-1.5,2-2.1
						c1.3-1.4,2.7-2.7,4.2-3.9c0.6-0.5,0.6-1.6,0-2.1C465.4,499.8,464.6,499.8,464,500.4L464,500.4z"/>
				</g>
			</g>
		</g>
		<g>
			<defs>
				<filter id="Adobe_OpacityMaskFilter_24_" filterUnits="userSpaceOnUse" x="449.5" y="502.3" width="14.4" height="10.4">
					<feFlood  style="flood-color:white;flood-opacity:1" result="back"/>
					<feBlend  in="SourceGraphic" in2="back" mode="normal"/>
				</filter>
			</defs>
			<mask maskUnits="userSpaceOnUse" x="449.5" y="502.3" width="14.4" height="10.4" id="SVGID_25_">
				<g class="st52">
					<image style="overflow:visible;" width="19" height="15" xlink:href="CB4397E1.jpg"  transform="matrix(1 0 0 1 447 500)">
					</image>
				</g>
			</mask>
			<g class="st53">
				<g>
					<path class="st13" d="M449.5,503.8c0.3,2.2,1.7,3.4,3.4,4.7c0.2,0.1,0.3,0.3,0.5,0.4c0.3,0.2-0.1-0.1,0,0
						c0.1,0.1,0.2,0.1,0.2,0.2c0.3,0.3,0.6,0.5,0.9,0.8c0.1,0.1,0.1,0.1,0.2,0.2c0.2,0.2-0.1-0.2,0,0c0.1,0.1,0.2,0.3,0.3,0.5
						c-0.2-0.2,0-0.1,0,0c0,0.1,0,0.1,0.1,0.2c0.1,0.2,0-0.2,0,0c0,0.1,0,0.2,0,0.3c-0.1,1.2,1.7,2.1,2.6,1.1
						c1.9-2.4,3.9-4.8,5.8-7.1c0.5-0.6,0.6-1.5,0-2.1c-0.5-0.5-1.6-0.6-2.1,0c-1.9,2.4-3.9,4.8-5.8,7.1c0.9,0.4,1.7,0.7,2.6,1.1
						c0.1-2-1.3-3.4-2.7-4.5c-0.2-0.2-0.5-0.4-0.7-0.5c-0.1-0.1-0.5-0.4-0.3-0.2c-0.3-0.3-0.7-0.5-1-0.8c-0.2-0.1-0.3-0.3-0.4-0.5
						c0,0-0.2-0.3-0.1-0.1c0.1,0.2-0.1-0.1-0.1-0.1c-0.1-0.1-0.3-0.6-0.2-0.2c0-0.1-0.1-0.2-0.1-0.3c0-0.1-0.1-0.4,0,0
						c-0.1-0.8-0.6-1.5-1.5-1.5C450.3,502.3,449.4,503,449.5,503.8L449.5,503.8z"/>
				</g>
			</g>
		</g>
		<g>
			<defs>
				<filter id="Adobe_OpacityMaskFilter_25_" filterUnits="userSpaceOnUse" x="448" y="490.7" width="3.8" height="8.6">
					<feFlood  style="flood-color:white;flood-opacity:1" result="back"/>
					<feBlend  in="SourceGraphic" in2="back" mode="normal"/>
				</filter>
			</defs>
			<mask maskUnits="userSpaceOnUse" x="448" y="490.7" width="3.8" height="8.6" id="SVGID_26_">
				<g class="st54">
					<image style="overflow:visible;" width="8" height="14" xlink:href="CB4397E6.jpg"  transform="matrix(1 0 0 1 446 488)">
					</image>
				</g>
			</mask>
			<g class="st55">
				<g>
					<path class="st13" d="M448.7,492.6c0.1,0.2,0.1,0.4,0.1,0.7c0,0.2,0,0.1,0-0.1c0,0.1,0,0.1,0,0.2c0,0.1,0,0.2,0,0.3
						c0,0.5,0,0.9,0,1.4c0,0.1,0,0.1,0,0.2c0-0.1,0-0.1,0-0.2c-0.1,0.1-0.1,0.3-0.1,0.4c0,0.2-0.1,0.4-0.2,0.7
						c-0.1,0.2-0.1,0.4-0.2,0.7c0,0-0.1,0.3-0.1,0.3c0.1-0.2,0.1-0.2,0-0.1c0,0.1-0.1,0.1-0.1,0.2c-0.2,0.4-0.3,0.7-0.2,1.2
						c0.1,0.3,0.4,0.7,0.7,0.9c0.7,0.4,1.7,0.2,2.1-0.5c1-2.1,1.3-4.5,0.7-6.8c-0.2-0.8-1.1-1.3-1.8-1
						C448.9,491,448.5,491.8,448.7,492.6L448.7,492.6z"/>
				</g>
			</g>
		</g>
		<g>
			<defs>
				<filter id="Adobe_OpacityMaskFilter_26_" filterUnits="userSpaceOnUse" x="445" y="474.2" width="7.3" height="10.6">
					<feFlood  style="flood-color:white;flood-opacity:1" result="back"/>
					<feBlend  in="SourceGraphic" in2="back" mode="normal"/>
				</filter>
			</defs>
			<mask maskUnits="userSpaceOnUse" x="445" y="474.2" width="7.3" height="10.6" id="SVGID_27_">
				<g class="st56">
					<image style="overflow:visible;" width="13" height="15" xlink:href="CB4397E7.jpg"  transform="matrix(1 0 0 1 442 472)">
					</image>
				</g>
			</mask>
			<g class="st57">
				<g>
					<path class="st13" d="M451.9,483.8c0.5-2.5,0.4-5.1-0.6-7.4c-0.5-1.2-1.6-2.2-3-2.1c-1.2,0.1-2.3,0.8-2.9,1.9
						c-0.7,1.5-0.4,3.1,0,4.6c0.2,0.8,1.1,1.3,1.8,1c0.8-0.2,1.3-1,1-1.8c-0.1-0.3-0.2-0.6-0.2-0.9c0-0.1-0.1-0.3-0.1-0.4
						c0-0.2,0-0.2,0,0c0-0.1,0-0.2,0-0.3c0-0.1,0-0.3,0-0.4c0-0.4-0.1,0.2,0-0.1c0-0.1,0.2-0.5,0.1-0.3c-0.1,0.2,0.1-0.1,0.1-0.2
						c0.2-0.3-0.2,0.2,0,0c0,0,0.1-0.1,0.1-0.1c0.1-0.1,0.1-0.1,0,0c-0.1,0.1-0.1,0.1,0,0c0.1,0,0.1-0.1,0.2-0.1
						c0.2-0.1-0.3,0.1,0,0c0.1,0,0.1,0,0.2,0c-0.2,0-0.3,0-0.2,0c0,0,0.1,0,0.1,0c0.2,0,0.1,0-0.1,0c0,0,0.1,0,0.1,0
						c0.1,0,0.1,0-0.2-0.1c0.2,0.1-0.2-0.2,0.1,0.1c0.1,0.1,0.1,0.1-0.1-0.1c0,0.1,0.1,0.1,0.1,0.2c0,0.1,0.2,0.4,0,0.1
						c0.1,0.2,0.2,0.6,0.3,0.9c0.1,0.3,0.1,0.5,0.2,0.8c0,0.2,0.1,0.3,0.1,0.5c0,0.1,0.1,0.5,0,0.1c0.1,0.6,0.1,1.1,0.1,1.7
						c0,0.3,0,0.6-0.1,0.9c0-0.3,0,0.1,0,0.1c0,0.2-0.1,0.3-0.1,0.5c-0.2,0.8,0.2,1.7,1,1.8C450.8,485,451.7,484.6,451.9,483.8
						L451.9,483.8z"/>
				</g>
			</g>
		</g>
		<g>
			<defs>
				<filter id="Adobe_OpacityMaskFilter_27_" filterUnits="userSpaceOnUse" x="445" y="472" width="4" height="7.7">
					<feFlood  style="flood-color:white;flood-opacity:1" result="back"/>
					<feBlend  in="SourceGraphic" in2="back" mode="normal"/>
				</filter>
			</defs>
			<mask maskUnits="userSpaceOnUse" x="445" y="472" width="4" height="7.7" id="SVGID_28_">
				<g class="st58">
					<image style="overflow:visible;" width="9" height="13" xlink:href="CB4397E5.jpg"  transform="matrix(1 0 0 1 443 469)">
					</image>
				</g>
			</mask>
			<g class="st59">
				<g>
					<path class="st13" d="M447.9,478.6c0.2-1.6,0.6-3.2,1-4.7c0.2-0.8-0.3-1.7-1-1.8c-0.8-0.2-1.6,0.2-1.8,1
						c-0.5,1.6-0.8,3.1-1,4.7c-0.1,0.4-0.1,0.8,0.2,1.2c0.2,0.3,0.5,0.6,0.9,0.7c0.4,0.1,0.8,0.1,1.2-0.2
						C447.6,479.3,447.9,479,447.9,478.6L447.9,478.6z"/>
				</g>
			</g>
		</g>
		<g>
			<defs>
				<filter id="Adobe_OpacityMaskFilter_28_" filterUnits="userSpaceOnUse" x="444.7" y="476.8" width="4.8" height="18.5">
					<feFlood  style="flood-color:white;flood-opacity:1" result="back"/>
					<feBlend  in="SourceGraphic" in2="back" mode="normal"/>
				</filter>
			</defs>
			<mask maskUnits="userSpaceOnUse" x="444.7" y="476.8" width="4.8" height="18.5" id="SVGID_29_">
				<g class="st60">
					<image style="overflow:visible;" width="10" height="24" xlink:href="CB4397D0.jpg"  transform="matrix(1 0 0 1 442 474)">
					</image>
				</g>
			</mask>
			<g class="st61">
				<g>
					<path class="st13" d="M446.5,477.8c-1.3,5.2-1.9,10.6-1.8,16c0,1.9,3,1.9,3,0c-0.1-5.1,0.5-10.2,1.7-15.2
						C449.9,476.8,447,476,446.5,477.8L446.5,477.8z"/>
				</g>
			</g>
		</g>
		<g>
			<defs>
				<filter id="Adobe_OpacityMaskFilter_29_" filterUnits="userSpaceOnUse" x="445.9" y="478.3" width="3.5" height="9.8">
					<feFlood  style="flood-color:white;flood-opacity:1" result="back"/>
					<feBlend  in="SourceGraphic" in2="back" mode="normal"/>
				</filter>
			</defs>
			<mask maskUnits="userSpaceOnUse" x="445.9" y="478.3" width="3.5" height="9.8" id="SVGID_30_">
				<g class="st62">
					<image style="overflow:visible;" width="9" height="15" xlink:href="CB4397D3.jpg"  transform="matrix(1 0 0 1 443 476)">
					</image>
				</g>
			</mask>
			<g class="st63">
				<g>
					<path class="st13" d="M446.4,479.8c-0.2,2.3-0.3,4.5-0.5,6.8c-0.1,0.8,0.7,1.5,1.5,1.5c0.9,0,1.4-0.7,1.5-1.5
						c0.2-2.3,0.3-4.5,0.5-6.8c0.1-0.8-0.7-1.5-1.5-1.5C447,478.3,446.4,479,446.4,479.8L446.4,479.8z"/>
				</g>
			</g>
		</g>
		<g>
			<defs>
				<filter id="Adobe_OpacityMaskFilter_30_" filterUnits="userSpaceOnUse" x="444.6" y="477.5" width="4.1" height="14.5">
					<feFlood  style="flood-color:white;flood-opacity:1" result="back"/>
					<feBlend  in="SourceGraphic" in2="back" mode="normal"/>
				</filter>
			</defs>
			<mask maskUnits="userSpaceOnUse" x="444.6" y="477.5" width="4.1" height="14.5" id="SVGID_31_">
				<g class="st64">
					<image style="overflow:visible;" width="9" height="20" xlink:href="CB4397D2.jpg"  transform="matrix(1 0 0 1 442 475)">
					</image>
				</g>
			</mask>
			<g class="st65">
				<g>
					<path class="st13" d="M445.7,478.6c-0.7,4-1,8-1.1,12c0,1.9,3,1.9,3,0c0.1-3.7,0.4-7.5,1-11.2c0.1-0.8-0.2-1.6-1-1.8
						C446.9,477.4,445.9,477.8,445.7,478.6L445.7,478.6z"/>
				</g>
			</g>
		</g>
		<g>
			<defs>
				<filter id="Adobe_OpacityMaskFilter_31_" filterUnits="userSpaceOnUse" x="457" y="500" width="48" height="48">
					<feFlood  style="flood-color:white;flood-opacity:1" result="back"/>
					<feBlend  in="SourceGraphic" in2="back" mode="normal"/>
				</filter>
			</defs>
			<mask maskUnits="userSpaceOnUse" x="457" y="500" width="48" height="48" id="SVGID_32_">
				<g class="st66">
					<image style="overflow:visible;" width="52" height="52" xlink:href="CB4397D7.jpg"  transform="matrix(1 0 0 1 455 498)">
					</image>
				</g>
			</mask>
			<g class="st67">
				<g>
					<g>
						<circle class="st1" cx="481" cy="524" r="15"/>
						<path d="M481,500c-13.2,0-24,10.8-24,24s10.8,24,24,24s24-10.8,24-24S494.2,500,481,500z M481,539c-8.3,0-15-6.7-15-15
							s6.7-15,15-15s15,6.7,15,15S489.3,539,481,539z"/>
					</g>
				</g>
			</g>
		</g>
		<g>
			<defs>
				<filter id="Adobe_OpacityMaskFilter_32_" filterUnits="userSpaceOnUse" x="559" y="505" width="48" height="48">
					<feFlood  style="flood-color:white;flood-opacity:1" result="back"/>
					<feBlend  in="SourceGraphic" in2="back" mode="normal"/>
				</filter>
			</defs>
			<mask maskUnits="userSpaceOnUse" x="559" y="505" width="48" height="48" id="SVGID_33_">
				<g class="st68">
					<image style="overflow:visible;" width="52" height="52" xlink:href="CB4397D4.jpg"  transform="matrix(1 0 0 1 557 503)">
					</image>
				</g>
			</mask>
			<g class="st69">
				<g>
					<g>
						<circle class="st1" cx="583" cy="529" r="15"/>
						<path d="M583,505c-13.2,0-24,10.8-24,24s10.8,24,24,24s24-10.8,24-24S596.2,505,583,505z M583,544c-8.3,0-15-6.7-15-15
							s6.7-15,15-15s15,6.7,15,15S591.3,544,583,544z"/>
					</g>
				</g>
			</g>
		</g>
		<g>
			<defs>
				<filter id="Adobe_OpacityMaskFilter_33_" filterUnits="userSpaceOnUse" x="419.1" y="412.9" width="0" height="0">
					<feFlood  style="flood-color:white;flood-opacity:1" result="back"/>
					<feBlend  in="SourceGraphic" in2="back" mode="normal"/>
				</filter>
			</defs>
			<mask maskUnits="userSpaceOnUse" x="419.1" y="412.9" width="0" height="0" id="SVGID_34_">
				<g class="st70">
					<image style="overflow:visible;" width="5" height="5" xlink:href="CB4397D5.jpg"  transform="matrix(1 0 0 1 417 410)">
					</image>
				</g>
			</mask>
			<g class="st71">
				<g>
					<path d="M419.1,412.9"/>
				</g>
			</g>
		</g>
		<g>
			<defs>
				<filter id="Adobe_OpacityMaskFilter_34_" filterUnits="userSpaceOnUse" x="400.6" y="415.6" width="7.5" height="4.4">
					<feFlood  style="flood-color:white;flood-opacity:1" result="back"/>
					<feBlend  in="SourceGraphic" in2="back" mode="normal"/>
				</filter>
			</defs>
			<mask maskUnits="userSpaceOnUse" x="400.6" y="415.6" width="7.5" height="4.4" id="SVGID_35_">
				<g class="st72">
					<image style="overflow:visible;" width="13" height="10" xlink:href="CB4397D6.jpg"  transform="matrix(1 0 0 1 398 413)">
					</image>
				</g>
			</mask>
			<g class="st73">
				<g>
					<path d="M408.1,416c-0.9-0.5-1.9-0.5-2.8-0.1c-0.5,0.2-0.9,0.6-1.4,0.8c-0.4,0.2-0.7,0.1-0.4,0.5c-1.1-1.6-3.7-0.1-2.6,1.5
						c0.8,1.3,2.3,1.5,3.7,1"/>
				</g>
			</g>
		</g>
		<g>
			<defs>
				<filter id="Adobe_OpacityMaskFilter_35_" filterUnits="userSpaceOnUse" x="410.3" y="413.2" width="2.8" height="1.5">
					<feFlood  style="flood-color:white;flood-opacity:1" result="back"/>
					<feBlend  in="SourceGraphic" in2="back" mode="normal"/>
				</filter>
			</defs>
			<mask maskUnits="userSpaceOnUse" x="410.3" y="413.2" width="2.8" height="1.5" id="SVGID_36_">
				<g class="st74">
					<image style="overflow:visible;" width="8" height="6" xlink:href="CB4397AC.jpg"  transform="matrix(1 0 0 1 408 411)">
					</image>
				</g>
			</mask>
			<g class="st75">
				<g>
					<path d="M413.1,413.9c-0.7-1.3-2.8-0.7-2.8,0.8"/>
				</g>
			</g>
		</g>
		<g>
			<defs>
				<filter id="Adobe_OpacityMaskFilter_36_" filterUnits="userSpaceOnUse" x="414.5" y="406.5" width="1.7" height="5.6">
					<feFlood  style="flood-color:white;flood-opacity:1" result="back"/>
					<feBlend  in="SourceGraphic" in2="back" mode="normal"/>
				</filter>
			</defs>
			<mask maskUnits="userSpaceOnUse" x="414.5" y="406.5" width="1.7" height="5.6" id="SVGID_37_">
				<g class="st76">
					<image style="overflow:visible;" width="7" height="11" xlink:href="CB4397A8.jpg"  transform="matrix(1 0 0 1 412 404)">
					</image>
				</g>
			</mask>
			<g class="st77">
				<g>
					<path d="M414.5,406.5c1.1,1.6,1.9,3.7,1.7,5.6"/>
				</g>
			</g>
		</g>
		<g>
			<defs>
				<filter id="Adobe_OpacityMaskFilter_37_" filterUnits="userSpaceOnUse" x="427.3" y="399.1" width="9.3" height="6.9">
					<feFlood  style="flood-color:white;flood-opacity:1" result="back"/>
					<feBlend  in="SourceGraphic" in2="back" mode="normal"/>
				</filter>
			</defs>
			<mask maskUnits="userSpaceOnUse" x="427.3" y="399.1" width="9.3" height="6.9" id="SVGID_38_">
				<g class="st78">
					<image style="overflow:visible;" width="14" height="11" xlink:href="CB4397B9.jpg"  transform="matrix(1 0 0 1 425 397)">
					</image>
				</g>
			</mask>
			<g class="st79">
				<g>
					<path d="M427.3,405.9c3.8,0.2,4.8-3.9,4.9-6.8c-1,0.1-2,0.3-2.9,0.4c0.9,3.3,5.3,3.8,7.3,1.2"/>
				</g>
			</g>
		</g>
		<g>
			<defs>
				<filter id="Adobe_OpacityMaskFilter_38_" filterUnits="userSpaceOnUse" x="422.5" y="399.8" width="4.4" height="5.8">
					<feFlood  style="flood-color:white;flood-opacity:1" result="back"/>
					<feBlend  in="SourceGraphic" in2="back" mode="normal"/>
				</filter>
			</defs>
			<mask maskUnits="userSpaceOnUse" x="422.5" y="399.8" width="4.4" height="5.8" id="SVGID_39_">
				<g class="st80">
					<image style="overflow:visible;" width="9" height="11" xlink:href="CB439829.jpg"  transform="matrix(1 0 0 1 420 397)">
					</image>
				</g>
			</mask>
			<g class="st81">
				<g>
					<path d="M422.5,405.5c3.2,0,4.2-3.2,4.4-5.8"/>
				</g>
			</g>
		</g>
		<g>
			<defs>
				<filter id="Adobe_OpacityMaskFilter_39_" filterUnits="userSpaceOnUse" x="423.2" y="402.2" width="0" height="0">
					<feFlood  style="flood-color:white;flood-opacity:1" result="back"/>
					<feBlend  in="SourceGraphic" in2="back" mode="normal"/>
				</filter>
			</defs>
			<mask maskUnits="userSpaceOnUse" x="423.2" y="402.2" width="0" height="0" id="SVGID_40_">
				<g class="st82">
					<image style="overflow:visible;" width="5" height="5" xlink:href="CB439828.jpg"  transform="matrix(1 0 0 1 421 400)">
					</image>
				</g>
			</mask>
			<g class="st83">
				<g>
					<path d="M423.2,402.2"/>
				</g>
			</g>
		</g>
		<g>
			<defs>
				<filter id="Adobe_OpacityMaskFilter_40_" filterUnits="userSpaceOnUse" x="426.7" y="397.6" width="8" height="5.3">
					<feFlood  style="flood-color:white;flood-opacity:1" result="back"/>
					<feBlend  in="SourceGraphic" in2="back" mode="normal"/>
				</filter>
			</defs>
			<mask maskUnits="userSpaceOnUse" x="426.7" y="397.6" width="8" height="5.3" id="SVGID_41_">
				<g class="st84">
					<image style="overflow:visible;" width="13" height="10" xlink:href="CB439837.jpg"  transform="matrix(1 0 0 1 424 395)">
					</image>
				</g>
			</mask>
			<g class="st85">
				<g>
					<path d="M434.8,397.9c-0.2,0.6-0.6,1.3-1.2,1.4c-0.5,0.1-1.2-0.1-1.3-0.7c-0.5-1.7-2.9-1.3-2.9,0.4c0,1.1-0.1,3.8-1.7,3.8
						c-1.2,0-0.9-2-0.8-2.7"/>
				</g>
			</g>
		</g>
	</g>
	<circle cx="480.5" cy="525.5" r="3.5"/>
	<circle cx="583.5" cy="529.5" r="3.5"/>
	<g>
		
			<image style="overflow:visible;opacity:0.75;" width="161" height="99" xlink:href="CB439825.png"  transform="matrix(1 0 0 1 459 444)">
		</image>
		<g>
			<text transform="matrix(1.2631 0 0 1 467 504.4746)" class="st86 st87 st88">AJD</text>
		</g>
	</g>
	<text transform="matrix(0.9367 0 0 1 427.665 564.166)" class="st89 st87 st90">Garden Maintenance</text>
</g>
</svg>
